<svg version="1.1" id="Layer_1" xmlns="http://www.w3.org/2000/svg" xmlns:xlink="http://www.w3.org/1999/xlink" x="0px" y="0px"
	 width="1200px" height="900px" viewBox="0 0 1200 900" enable-background="new 0 0 1200 900" xml:space="preserve">
<defs>
	<style>
		.line:hover {
			stroke: #191919;
			-webkit-transition: all 0.6s ease-out;  /* Saf3.2+, Chrome */
			   -moz-transition: all 0.6s ease-out;  /* FF4+ */
			    -ms-transition: all 0.6s ease-out;  /* IE10? */
			     -o-transition: all 0.6s ease-out;  /* Opera 10.5+ */
			        transition: all 0.6s ease-out;
		}
	</style>
</defs>
	
<line class="line" fill="none" stroke="#e1e1e1" stroke-miterlimit="10" x1="27.816" y1="313.838" x2="455.367" y2="409.756"/>
<line class="line" fill="none" stroke="#e1e1e1" stroke-miterlimit="10" x1="503.327" y1="373.021" x2="565.571" y2="209.756"/>
<line class="line" fill="none" stroke="#e1e1e1" stroke-miterlimit="10" x1="503.326" y1="90.369" x2="780.877" y2="269.45"/>
<line class="line" fill="none" stroke="#e1e1e1" stroke-miterlimit="10" x1="1077.816" y1="276.082" x2="1120.006" y2="83.736"/>
<line class="line" fill="none" stroke="#e1e1e1" stroke-miterlimit="10" x1="1084.449" y1="726.082" x2="1077.816" y2="276.082"/>
<line class="line" fill="none" stroke="#e1e1e1" stroke-miterlimit="10" x1="996.184" y1="513.184" x2="619.652" y2="662.818"/>
<line class="line" fill="none" stroke="#e1e1e1" stroke-miterlimit="10" x1="201.285" y1="800.572" x2="214.55" y2="692.41"/>
<line class="line" fill="none" stroke="#e1e1e1" stroke-miterlimit="10" x1="214.55" y1="692.41" x2="660.469" y2="456.633"/>
<line class="line" fill="none" stroke="#e1e1e1" stroke-miterlimit="10" x1="660.469" y1="456.633" x2="245.163" y2="513.184"/>
<line class="line" fill="none" stroke="#e1e1e1" stroke-miterlimit="10" x1="455.367" y1="409.756" x2="503.327" y2="373.021"/>
<line class="line" fill="none" stroke="#e1e1e1" stroke-miterlimit="10" x1="503.327" y1="373.021" x2="660.469" y2="456.633"/>
<line class="line" fill="none" stroke="#e1e1e1" stroke-miterlimit="10" x1="455.367" y1="409.756" x2="660.469" y2="456.633"/>
<line class="line" fill="none" stroke="#e1e1e1" stroke-miterlimit="10" x1="455.367" y1="409.756" x2="245.163" y2="513.184"/>
<line class="line" fill="none" stroke="#e1e1e1" stroke-miterlimit="10" x1="245.163" y1="513.184" x2="27.816" y2="313.838"/>
<line class="line" fill="none" stroke="#e1e1e1" stroke-miterlimit="10" x1="245.163" y1="513.184" x2="214.55" y2="692.41"/>
<line class="line" fill="none" stroke="#e1e1e1" stroke-miterlimit="10" x1="311.489" y1="256.185" x2="503.326" y2="90.369"/>
<line class="line" fill="none" stroke="#e1e1e1" stroke-miterlimit="10" x1="311.489" y1="256.185" x2="27.816" y2="313.838"/>
<line class="line" fill="none" stroke="#e1e1e1" stroke-miterlimit="10" x1="311.489" y1="256.185" x2="455.367" y2="409.756"/>
<line class="line" fill="none" stroke="#e1e1e1" stroke-miterlimit="10" x1="311.489" y1="256.185" x2="503.327" y2="373.021"/>
<line class="line" fill="none" stroke="#e1e1e1" stroke-miterlimit="10" x1="311.489" y1="256.185" x2="565.571" y2="209.756"/>
<line class="line" fill="none" stroke="#e1e1e1" stroke-miterlimit="10" x1="565.571" y1="209.756" x2="503.326" y2="90.369"/>
<line class="line" fill="none" stroke="#e1e1e1" stroke-miterlimit="10" x1="565.571" y1="209.756" x2="780.877" y2="269.45"/>
<line class="line" fill="none" stroke="#e1e1e1" stroke-miterlimit="10" x1="780.877" y1="269.45" x2="660.469" y2="456.633"/>
<line class="line" fill="none" stroke="#e1e1e1" stroke-miterlimit="10" x1="503.327" y1="373.021" x2="780.877" y2="269.45"/>
<line class="line" fill="none" stroke="#e1e1e1" stroke-miterlimit="10" x1="27.816" y1="313.838" x2="214.55" y2="692.41"/>
<line class="line" fill="none" stroke="#e1e1e1" stroke-miterlimit="10" x1="201.285" y1="800.572" x2="619.652" y2="662.818"/>
<line class="line" fill="none" stroke="#e1e1e1" stroke-miterlimit="10" x1="214.55" y1="692.41" x2="619.652" y2="662.818"/>
<line class="line" fill="none" stroke="#e1e1e1" stroke-miterlimit="10" x1="660.469" y1="456.633" x2="619.652" y2="662.818"/>
<line class="line" fill="none" stroke="#e1e1e1" stroke-miterlimit="10" x1="660.469" y1="456.633" x2="950.266" y2="480.164"/>
<line class="line" fill="none" stroke="#e1e1e1" stroke-miterlimit="10" x1="950.266" y1="480.164" x2="996.184" y2="513.184"/>
<line class="line" fill="none" stroke="#e1e1e1" stroke-miterlimit="10" x1="950.266" y1="480.164" x2="1077.816" y2="276.082"/>
<line class="line" fill="none" stroke="#e1e1e1" stroke-miterlimit="10" x1="780.877" y1="269.45" x2="950.266" y2="480.164"/>
<line class="line" fill="none" stroke="#e1e1e1" stroke-miterlimit="10" x1="780.877" y1="269.45" x2="1077.816" y2="276.082"/>
<line class="line" fill="none" stroke="#e1e1e1" stroke-miterlimit="10" x1="1077.816" y1="276.082" x2="996.184" y2="513.184"/>
<line class="line" fill="none" stroke="#e1e1e1" stroke-miterlimit="10" x1="996.184" y1="513.184" x2="1084.449" y2="726.082"/>
<line class="line" fill="none" stroke="#e1e1e1" stroke-miterlimit="10" x1="619.652" y1="662.818" x2="1084.449" y2="726.082"/>
<line class="line" fill="none" stroke="#e1e1e1" stroke-miterlimit="10" x1="1084.449" y1="726.082" x2="1106.741" y2="821.16"/>
<line class="line" fill="none" stroke="#e1e1e1" stroke-miterlimit="10" x1="619.652" y1="662.818" x2="1106.741" y2="821.16"/>
<line class="line" fill="none" stroke="#e1e1e1" stroke-miterlimit="10" x1="780.877" y1="269.45" x2="1120.006" y2="83.736"/>
<circle fill="#191919" cx="780.877" cy="269.45" r="6.632"/>
<circle fill="#191919" cx="311.489" cy="256.186" r="6.632"/>
<circle fill="#191919" cx="996.183" cy="513.185" r="6.632"/>
<circle fill="#191919" cx="245.163" cy="513.185" r="6.632"/>
<circle fill="#191919" cx="455.367" cy="409.757" r="6.632"/>
<circle fill="#191919" cx="660.469" cy="456.633" r="6.632"/>
<circle fill="#191919" cx="201.285" cy="800.573" r="6.632"/>
<circle fill="#191919" cx="1106.741" cy="821.161" r="6.632"/>
<circle fill="#191919" cx="619.653" cy="662.818" r="6.632"/>
<circle fill="#191919" cx="503.326" cy="90.369" r="6.632"/>
<circle fill="#191919" cx="1120.006" cy="83.737" r="6.632"/>
<circle fill="#191919" cx="1077.816" cy="276.083" r="6.632"/>
<circle fill="#191919" cx="950.265" cy="480.165" r="6.632"/>
<circle fill="#191919" cx="565.571" cy="209.757" r="6.632"/>
<circle fill="#191919" cx="214.55" cy="692.41" r="6.632"/>
<circle fill="#191919" cx="27.816" cy="313.838" r="6.632"/>
<circle fill="#191919" cx="503.327" cy="373.022" r="6.632"/>
<circle fill="#191919" cx="1084.449" cy="726.083" r="6.632"/>
</svg>
